# xmcd
#
# Track frame offsets: 
#        150
#        16978
#        36446
#        52702
#        65039
#        79090
#        91547
#        106874
#        124485
#        149801
#        172752
#        201284
#
# Disc length: 3002 seconds
#
# Revision: 0
# Processed by: cddbd v1.5.2PL0 Copyright (c) Steve Scherf et al.
# Submitted via: ExactAudioCopyFreeDBPlugin 1.0
#
DISCID=9f0bb80c
DTITLE=Александр Новиков - 110 лет Сергей Есенин Диск 2
DYEAR=2005
DGENRE=Chanson
TTITLE0=Ты прохладой меня не мучай
TTITLE1=Пускай ты выпита другим ...
TTITLE2=Годы молодые с забубленной славой
TTITLE3=Все живое особой метой...
TTITLE4=Цветы на подоконнтке
TTITLE5=Папиросники
TTITLE6=Вижу сон. Дорога чёрная...
TTITLE7=Сыпь, гармоника...
TTITLE8=Видно так заведено на веки...
TTITLE9=Пой же, пой...
TTITLE10=Плачет метель, как цыганская скрипка...
TTITLE11=Представления артистов
EXTD=
EXTT0=
EXTT1=
EXTT2=
EXTT3=
EXTT4=
EXTT5=
EXTT6=
EXTT7=
EXTT8=
EXTT9=
EXTT10=
EXTT11=
PLAYORDER=
